<svg id="visual" viewBox="0 0 900 600" width="900" height="600" xmlns="http://www.w3.org/2000/svg" xmlns:xlink="http://www.w3.org/1999/xlink" version="1.1"><rect x="0" y="0" width="900" height="600" fill="#009473"></rect><g fill="none" stroke="#001122" stroke-width="4"><path d="M31.8 18.4L31.8 82.1L-31.8 82.1L-31.8 18.4L-87 -13.5L-55.2 -68.6L0 -36.8L55.2 -68.6L87 -13.5Z" transform="translate(612 500)"></path><path d="M14 8.1L14 36.2L-14 36.2L-14 8.1L-38.3 -5.9L-24.3 -30.2L0 -16.2L24.3 -30.2L38.3 -5.9Z" transform="translate(781 27)"></path><path d="M21.3 12.3L21.3 54.9L-21.3 54.9L-21.3 12.3L-58.2 -9L-36.9 -45.9L0 -24.6L36.9 -45.9L58.2 -9Z" transform="translate(51 144)"></path><path d="M27 15.6L27 69.6L-27 69.6L-27 15.6L-73.7 -11.4L-46.7 -58.1L0 -31.2L46.7 -58.1L73.7 -11.4Z" transform="translate(36 499)"></path></g></svg>